<svg xmlns="http://www.w3.org/2000/svg" width="48" height="48" viewBox="0 0 48 48">
  <circle cx="24" cy="24" r="19" fill="none" stroke="#000" stroke-width="5.5"/>
  <circle cx="24" cy="24" r="19" fill="none" stroke="#d85656" stroke-width="2.5"/>
  <path d="M5.5 24h37M8.5 15h31M8.5 33h31M24 5c5 5 7 11 7 19s-2 14-7 19c-5-5-7-11-7-19s2-14 7-19Z" fill="none" stroke="#000" stroke-width="5" stroke-linecap="round" stroke-linejoin="round"/>
  <path d="M5.5 24h37M8.5 15h31M8.5 33h31M24 5c5 5 7 11 7 19s-2 14-7 19c-5-5-7-11-7-19s2-14 7-19Z" fill="none" stroke="#d85656" stroke-width="2" stroke-linecap="round" stroke-linejoin="round"/>
</svg>
